<?xml version="1.0" standalone="no"?>
<!DOCTYPE svg PUBLIC "-//W3C//DTD SVG 20010904//EN"
 "http://www.w3.org/TR/2001/REC-SVG-20010904/DTD/svg10.dtd">
<svg version="1.0" xmlns="http://www.w3.org/2000/svg"
 width="260.000000pt" height="260.000000pt" viewBox="0 0 260.000000 260.000000"
 preserveAspectRatio="xMidYMid meet">
<metadata>
Created by potrace 1.14, written by Peter Selinger 2001-2017
</metadata>
<g transform="translate(0.000000,260.000000) scale(0.100000,-0.100000)"
fill="#000000" stroke="none">
<path d="M507 2039 c7 -7 15 -10 18 -7 3 3 -2 9 -12 12 -14 6 -15 5 -6 -5z"/>
<path d="M543 2036 c0 -8 6 -12 13 -9 6 2 14 0 17 -4 3 -5 -6 -8 -21 -8 -15 1
-35 -5 -44 -13 -11 -9 -18 -11 -18 -4 0 6 -21 -1 -46 -15 -51 -29 -94 -38 -94
-20 0 7 -4 6 -9 -2 -6 -9 -5 -23 1 -35 10 -18 9 -19 -4 -9 -8 7 -18 10 -21 6
-4 -3 -7 0 -7 7 0 7 -2 11 -5 8 -10 -9 7 -38 18 -31 6 4 7 1 3 -6 -6 -9 -13
-8 -28 6 -20 18 -21 18 -9 -4 16 -30 14 -41 -4 -17 -14 19 -14 19 -9 -2 3 -12
-1 -26 -10 -33 -8 -7 -12 -20 -9 -29 4 -15 3 -15 -6 -2 -6 8 -11 11 -11 5 0
-5 -7 -1 -15 9 -8 11 -15 16 -15 11 0 -5 8 -17 17 -28 10 -11 12 -17 5 -13 -9
5 -13 3 -11 -5 3 -26 -1 -39 -12 -39 -8 0 -8 4 0 14 8 10 9 16 1 21 -6 3 -7
12 -3 18 4 7 0 6 -10 -2 -18 -14 -22 -23 -9 -19 4 2 7 -1 7 -7 0 -5 -3 -9 -6
-8 -3 1 -6 -4 -6 -12 0 -8 4 -12 9 -9 4 3 8 0 8 -6 0 -6 5 -8 12 -4 7 4 8 3 4
-4 -4 -6 -13 -9 -20 -6 -9 3 -13 -1 -13 -13 1 -10 -4 -17 -11 -15 -8 1 -11 -2
-7 -8 4 -6 14 -9 22 -5 12 4 13 2 6 -7 -6 -7 -9 -23 -7 -35 3 -15 -3 -26 -16
-33 -21 -11 -27 -30 -9 -30 5 0 7 5 4 10 -3 6 -2 10 3 10 6 0 9 -11 8 -24 -1
-27 -14 -29 -34 -6 -11 13 -11 11 -2 -7 10 -21 21 -27 42 -24 8 1 5 -20 -5
-36 -4 -6 -3 -14 3 -18 13 -8 13 -25 -1 -25 -5 0 -7 5 -3 12 4 7 3 8 -4 4 -7
-4 -10 1 -7 14 2 11 0 18 -5 15 -9 -6 -8 -24 3 -42 5 -7 5 -19 1 -25 -5 -9 -2
-8 9 1 10 8 20 11 24 7 3 -3 2 -6 -4 -6 -5 0 -10 -6 -11 -12 0 -7 -2 -21 -4
-30 -4 -20 15 -26 20 -6 2 9 0 8 -8 -2 -8 -10 -10 -11 -8 -2 5 18 24 15 20 -4
-7 -45 -6 -49 13 -49 12 0 19 -6 17 -14 -2 -9 3 -11 15 -7 14 6 15 4 6 -5 -13
-13 -36 -3 -27 13 4 7 2 8 -4 4 -19 -12 -14 -23 18 -36 17 -7 30 -17 30 -22 0
-5 -4 -7 -9 -3 -5 3 -12 1 -15 -4 -7 -11 13 -9 32 3 11 7 12 4 3 -12 -14 -26
-14 -43 0 -20 5 10 16 15 25 11 12 -5 12 -7 -3 -18 -16 -12 -15 -13 9 -11 14
2 32 -1 40 -5 11 -7 11 -9 0 -9 -7 0 -10 -5 -7 -10 4 -6 10 -8 15 -5 5 3 11 1
15 -4 3 -6 13 -8 23 -5 14 5 14 4 2 -4 -8 -6 -17 -9 -21 -7 -3 3 -6 -6 -5 -18
0 -12 7 -23 14 -23 29 -3 32 -4 32 -13 0 -13 -43 -10 -53 4 -5 6 -7 3 -3 -7 3
-11 0 -18 -7 -18 -8 0 -7 -4 3 -11 13 -9 13 -10 0 -6 -8 2 -14 10 -13 16 2 6
-2 11 -8 11 -8 0 -7 6 2 18 13 15 12 16 -3 3 -10 -7 -16 -17 -13 -21 13 -20
-80 -31 -117 -13 -15 7 -29 9 -32 4 -8 -12 4 -21 19 -15 7 3 16 1 19 -4 3 -5
-5 -8 -19 -7 -29 4 -93 -49 -74 -61 8 -5 10 -3 4 6 -6 10 -4 12 9 7 11 -5 15
-3 10 5 -5 7 -3 8 6 3 8 -5 11 -4 6 3 -3 6 -2 13 3 16 10 6 10 -11 0 -29 -3
-5 -4 -20 -3 -33 1 -16 -3 -21 -12 -18 -7 3 -16 1 -19 -5 -4 -5 -3 -8 2 -7 4
2 9 -2 10 -7 1 -6 -5 -9 -13 -7 -8 2 -14 -1 -14 -7 0 -5 11 -8 25 -6 14 1 28
-2 32 -8 3 -6 1 -7 -6 -3 -6 4 -14 0 -17 -8 -3 -9 -11 -13 -18 -9 -6 3 -6 1 2
-8 16 -17 16 -32 0 -23 -8 5 -7 0 2 -11 16 -20 15 -23 -9 -43 -14 -11 -13 -12
6 -3 12 6 23 16 26 23 2 7 4 1 3 -13 0 -15 -6 -25 -12 -22 -6 2 -17 -4 -25
-14 -12 -16 -12 -17 2 -6 13 11 19 9 35 -9 10 -12 13 -18 5 -13 -11 6 -13 4
-8 -9 4 -11 3 -15 -4 -11 -6 4 -8 13 -5 21 3 8 1 14 -5 14 -7 0 -9 -10 -4 -27
5 -23 4 -25 -8 -14 -12 9 -17 9 -23 0 -4 -7 -3 -9 4 -5 6 3 13 2 17 -4 4 -6
11 -7 17 -4 6 4 9 1 6 -7 -3 -8 -15 -13 -27 -13 -12 1 -19 -1 -16 -4 11 -11
40 -11 54 1 12 10 13 9 6 -3 -6 -8 -10 -18 -11 -22 -1 -5 -2 -11 -3 -14 0 -4
-8 0 -18 7 -15 13 -15 12 -4 -9 7 -12 15 -20 19 -18 5 3 7 -21 5 -52 -3 -61
13 -116 30 -105 7 4 8 0 3 -12 -7 -18 -6 -18 14 0 13 12 20 14 20 5 0 -7 7
-10 16 -6 8 3 13 2 10 -3 -3 -5 3 -11 14 -14 11 -3 23 -1 26 4 3 5 0 8 -7 7
-6 -2 -14 4 -16 12 -3 9 -1 11 4 5 9 -12 28 -13 39 -3 4 4 13 3 20 -3 8 -7 14
-7 19 1 5 8 11 8 20 0 14 -11 42 -9 65 5 13 7 13 6 2 -7 -11 -13 -10 -16 5
-14 10 0 20 4 23 8 3 4 18 9 33 12 14 2 31 7 36 10 5 4 13 1 17 -5 5 -8 3 -9
-6 -4 -8 5 -11 4 -6 -3 4 -6 14 -8 22 -5 13 5 13 7 2 14 -10 6 -9 11 7 23 11
8 22 12 25 9 3 -3 -1 -8 -8 -10 -13 -5 -7 -23 9 -23 6 0 8 4 5 8 -2 4 -1 14 4
22 7 11 11 12 25 0 12 -10 18 -11 28 -1 9 10 8 11 -5 6 -13 -5 -18 -2 -18 10
0 10 -4 13 -12 9 -9 -5 -9 -2 1 9 7 9 19 17 25 16 6 0 5 -3 -2 -6 -10 -4 -8
-9 7 -20 17 -11 19 -18 10 -34 -5 -11 -8 -25 -5 -32 3 -9 5 -9 5 1 1 6 6 12
12 12 5 0 7 -6 3 -12 -5 -8 0 -7 11 2 10 8 16 10 12 4 -4 -7 0 -14 8 -17 10
-4 12 -1 8 10 -6 15 -4 15 17 0 30 -21 40 -21 40 -1 0 8 4 13 10 9 5 -3 6 -13
3 -22 -6 -15 -5 -16 9 -3 9 8 12 16 7 18 -5 2 2 18 16 36 14 18 22 36 17 41
-4 5 -1 5 6 1 11 -6 17 5 13 27 0 4 4 7 10 7 6 0 9 -7 5 -15 -4 -11 1 -14 19
-13 14 1 27 8 29 15 6 15 -15 13 -26 -2 -12 -15 -10 7 2 25 8 12 10 12 10 1 0
-11 3 -11 17 0 9 8 14 9 10 3 -4 -7 0 -18 9 -25 13 -11 15 -11 12 2 -1 7 2 14
7 14 6 0 9 -4 7 -9 -2 -5 5 -3 14 5 12 9 15 9 10 1 -9 -14 -9 -14 32 -3 26 8
32 7 32 -5 0 -8 -4 -13 -9 -10 -5 3 -12 -1 -15 -9 -4 -12 -2 -13 12 -6 27 14
54 -13 55 -56 0 -7 4 -10 9 -7 4 3 4 13 -2 23 -5 10 -7 21 -4 24 3 3 -4 10
-15 17 -12 6 -21 15 -21 21 0 6 7 3 16 -5 8 -9 20 -13 26 -10 6 4 8 2 4 -4 -3
-6 -2 -13 3 -17 6 -3 8 -12 4 -20 -3 -9 1 -15 10 -15 8 0 18 -7 21 -16 5 -14
4 -15 -8 -5 -10 8 -16 9 -21 1 -3 -5 -4 -11 -1 -11 17 -4 26 -7 29 -8 9 -8 47
-9 47 -2 0 6 -9 8 -20 6 -11 -2 -18 0 -16 4 6 9 69 7 85 -3 6 -4 11 -2 11 3 0
6 5 11 11 11 5 0 7 -5 3 -12 -4 -7 -3 -8 5 -4 7 5 10 21 7 42 -5 26 -3 32 8
28 9 -4 13 -15 10 -31 -3 -16 -1 -22 6 -18 6 4 9 13 6 21 -3 7 -1 16 4 19 5 3
6 13 3 21 -5 13 -7 13 -14 2 -7 -10 -9 -11 -9 0 0 7 -5 10 -10 7 -5 -3 -10 -1
-10 5 0 6 -6 8 -12 4 -10 -6 -10 -4 0 7 15 16 16 33 0 23 -7 -4 -8 -3 -4 5 6
9 11 9 22 0 11 -9 12 -14 4 -19 -8 -5 -7 -9 4 -13 9 -4 15 -3 15 1 -1 4 -1 14
0 22 1 12 3 12 10 2 7 -11 9 -10 14 3 4 9 3 13 -3 10 -9 -6 -5 33 5 43 2 3 0
10 -5 17 -7 8 -5 12 4 12 13 0 14 -7 4 -47 -2 -9 3 -14 11 -12 11 2 12 0 3
-11 -7 -8 -9 -17 -5 -20 3 -4 0 -7 -7 -7 -9 0 -7 -7 6 -22 14 -16 14 -19 2
-10 -15 12 -16 9 -14 -23 2 -19 -1 -38 -5 -41 -5 -3 -9 -10 -9 -17 0 -6 6 -2
14 8 8 11 12 23 10 27 -2 4 0 9 5 13 6 3 8 -3 6 -15 -2 -11 0 -20 5 -20 5 0 7
-6 4 -13 -3 -8 2 -14 10 -14 8 0 12 5 10 12 -3 7 12 10 43 10 56 -2 83 4 83
17 0 5 -5 6 -11 3 -6 -4 -5 2 2 13 14 22 32 20 23 -2 -3 -8 -2 -16 3 -19 4 -3
8 8 8 23 1 16 -3 26 -7 24 -4 -3 -8 10 -9 28 -1 18 -2 48 -3 66 -2 32 17 46
27 20 3 -7 5 -4 4 8 -1 15 -7 20 -23 18 -17 -1 -21 2 -16 14 3 10 7 12 10 4 2
-7 8 -12 13 -12 6 0 8 3 5 8 -2 4 3 16 11 27 12 16 14 16 10 3 -7 -20 9 -34
17 -16 3 7 4 4 3 -7 -1 -12 3 -19 11 -17 9 2 12 -4 7 -17 -3 -11 -1 -22 5 -26
6 -3 7 -11 4 -17 -4 -7 -2 -8 5 -4 9 6 9 11 1 21 -7 8 -7 15 -1 19 13 9 18 -3
16 -41 -1 -18 2 -33 7 -33 6 0 8 7 5 15 -4 8 -1 17 6 21 7 4 9 4 5 -1 -4 -4 3
-16 15 -27 12 -11 16 -17 10 -13 -16 8 -16 3 -1 -30 7 -15 17 -24 25 -21 7 3
13 -1 13 -10 0 -11 6 -14 23 -9 21 6 21 5 -2 -8 l-23 -14 22 -6 c19 -5 21 -9
12 -20 -9 -10 -9 -14 2 -14 15 0 16 14 3 34 -6 10 -2 11 16 4 14 -6 28 -7 33
-3 4 4 4 1 0 -6 -4 -7 -12 -9 -18 -6 -7 4 -8 2 -4 -4 5 -9 13 -9 27 -2 10 6
19 7 19 3 0 -4 5 -1 11 7 9 13 10 13 8 0 -1 -8 -1 -22 0 -30 1 -12 4 -11 12 3
6 9 15 15 20 11 5 -3 8 0 7 7 -2 6 3 14 11 17 9 3 11 0 6 -8 -5 -8 -4 -11 2
-7 6 4 8 18 5 32 -2 15 0 25 7 25 7 0 9 -5 5 -12 -4 -7 2 -4 14 6 27 23 27 26
4 21 -12 -2 -18 3 -18 16 0 21 12 25 19 7 3 -7 4 -3 4 10 -1 14 -6 21 -15 17
-7 -2 -10 0 -7 5 3 6 2 10 -3 10 -4 0 -8 13 -8 29 0 24 3 27 20 22 18 -4 18
-6 4 -9 -10 -2 -18 -8 -18 -13 0 -6 9 -5 21 2 l21 11 -20 19 c-13 11 -19 27
-17 41 3 12 -1 28 -8 36 -10 13 -9 14 11 3 13 -7 26 -10 30 -7 3 3 0 6 -6 6
-6 0 -16 10 -23 22 -10 18 -9 20 5 15 9 -4 16 -2 16 2 0 5 -7 11 -15 14 -8 4
-12 15 -10 27 2 11 1 20 -3 20 -12 0 -12 39 -1 46 6 3 3 12 -8 20 -13 10 -14
13 -2 9 11 -4 15 1 15 20 0 14 -3 25 -6 25 -4 0 -7 7 -7 15 0 8 4 12 8 10 3
-3 9 7 12 22 5 25 4 26 -8 9 -14 -18 -14 -18 -13 0 1 11 -2 30 -5 44 -4 14 -4
19 -1 13 3 -7 10 -13 16 -13 6 0 5 7 -3 16 -12 15 -11 16 11 11 14 -4 19 -4
12 -1 -6 3 -9 11 -6 16 5 7 2 8 -6 3 -9 -5 -11 -4 -6 3 4 7 5 12 3 12 -3 0
-13 -13 -24 -30 -18 -29 -19 -29 -31 -9 -11 17 -10 20 4 17 9 -2 19 4 21 12 3
9 1 11 -4 5 -4 -5 -15 -10 -23 -10 -8 0 -14 -8 -13 -18 0 -10 -2 -16 -5 -13
-3 3 -12 0 -21 -7 -14 -10 -14 -10 -4 3 9 13 6 15 -22 15 -25 0 -31 -3 -23
-12 8 -9 4 -15 -13 -22 -13 -5 -18 -10 -11 -10 6 -1 12 -6 12 -12 0 -5 -4 -7
-10 -4 -10 6 -12 0 -12 -30 0 -31 2 -36 15 -29 8 5 8 2 -2 -9 -11 -14 -11 -17
0 -17 9 0 10 -3 4 -8 -11 -8 -13 -32 -3 -47 4 -6 -2 -11 -12 -12 -11 -1 -22 2
-25 8 -4 5 -12 9 -18 9 -7 0 -4 -5 6 -11 9 -6 14 -15 11 -21 -5 -7 -2 -8 7 -3
8 5 11 5 7 0 -4 -4 -2 -15 5 -24 9 -12 7 -11 -13 2 -27 19 -44 22 -35 7 4 -6
-1 -7 -11 -3 -14 5 -13 8 7 20 l24 13 -27 -4 c-37 -6 -54 21 -30 47 13 15 14
18 2 15 -10 -2 -15 5 -14 19 1 14 -3 20 -9 16 -6 -4 -21 -7 -34 -8 -21 -1 -21
1 -6 17 9 10 13 21 10 25 -4 3 -7 1 -7 -5 0 -7 -7 -12 -16 -12 -10 0 -12 5 -7
13 16 26 12 36 -13 27 -14 -6 -26 -6 -29 0 -4 6 -3 10 2 10 4 0 1 5 -7 10 -9
6 -10 10 -3 10 6 0 15 -4 18 -10 3 -5 12 -10 18 -10 7 0 4 5 -6 11 -9 6 -15
14 -13 18 3 4 -8 5 -25 3 -16 -2 -29 0 -29 5 0 5 -17 8 -37 7 -21 -1 -38 -3
-38 -4 0 -1 -10 -3 -22 -4 -12 -1 -20 1 -18 5 3 4 -1 9 -8 12 -7 3 -13 -5 -13
-19 -1 -13 2 -21 7 -18 5 3 6 -2 3 -11 -5 -12 -9 -13 -20 -4 -8 6 -14 7 -14 2
0 -6 10 -15 23 -21 17 -8 18 -11 5 -11 -9 -1 -20 -6 -24 -13 -5 -8 -2 -9 10
-5 10 4 15 3 11 -3 -3 -6 0 -10 7 -10 8 0 6 -5 -4 -11 -10 -5 -18 -15 -18 -20
0 -6 5 -7 10 -4 6 3 10 1 10 -4 0 -6 -7 -11 -15 -11 -8 0 -15 5 -15 10 0 6 -6
10 -12 10 -7 -1 -2 -10 11 -20 21 -18 17 -25 -11 -21 -9 1 -4 -20 15 -56 10
-18 23 -33 30 -33 6 0 -1 -8 -16 -19 -23 -15 -25 -19 -12 -25 9 -3 14 -2 11 2
-3 5 1 9 9 9 8 0 11 -5 7 -11 -11 -18 -11 -39 0 -59 5 -11 6 -17 1 -14 -4 3
-19 0 -32 -7 -19 -11 -21 -14 -7 -19 9 -4 13 -13 10 -22 -3 -8 -10 -12 -15 -9
-5 3 -6 11 -2 17 4 7 0 6 -10 -2 -14 -11 -20 -11 -32 -1 -8 7 -12 17 -9 22 6
10 -26 39 -37 33 -3 -2 -6 2 -6 10 0 10 4 12 12 5 9 -7 16 -6 25 4 10 13 8 15
-8 11 -11 -2 -31 5 -43 16 -12 10 -17 19 -11 19 6 0 14 -4 17 -10 3 -5 12 -10
18 -9 9 0 8 2 -1 6 -6 2 -10 9 -6 14 3 5 0 8 -7 7 -6 -2 -14 3 -17 11 -3 9 0
11 8 6 9 -6 11 -4 5 5 -6 10 -11 9 -22 -5 -7 -11 -13 -14 -13 -8 0 7 6 18 14
26 12 11 11 15 -6 26 -16 10 -19 10 -12 -1 6 -10 4 -10 -9 1 -9 7 -15 17 -12
21 3 5 0 11 -5 13 -6 3 -5 4 2 3 7 -2 12 -9 10 -16 -3 -11 0 -11 12 0 18 14
22 25 6 15 -5 -3 -10 -2 -10 4 0 5 5 13 10 16 5 3 10 11 10 18 0 6 -6 3 -13
-7 -12 -16 -17 -17 -33 -7 -17 11 -17 12 -1 7 10 -3 16 -2 12 3 -3 5 -1 11 4
13 15 5 -15 39 -37 41 -13 1 -18 7 -14 19 2 10 8 15 13 12 5 -3 9 0 9 5 0 14
-13 14 -28 -1 -9 -9 -12 -9 -12 0 0 6 8 16 18 22 16 11 16 11 0 6 -11 -3 -18
0 -18 7 0 8 -4 6 -10 -3 -5 -8 -10 -10 -10 -5 0 6 6 17 13 24 10 11 10 13 0 7
-7 -4 -13 -3 -13 1 0 5 6 15 13 23 10 12 9 12 -4 2 -9 -6 -19 -9 -22 -5 -4 3
-7 1 -7 -6 0 -7 -5 -9 -10 -6 -6 4 -8 10 -5 15 3 4 -1 13 -8 19 -10 8 -14 7
-14 -4 0 -8 5 -11 10 -8 6 4 7 1 3 -6 -5 -7 -11 -10 -14 -7 -3 3 -12 0 -21 -7
-14 -11 -14 -10 -2 6 15 19 2 24 -17 5 -7 -7 -12 -8 -12 -3 0 6 -5 3 -11 -5
-9 -12 -10 -11 -4 5 3 11 3 16 -1 12 -4 -4 -13 1 -21 11 -13 15 -13 15 -4 -5
14 -29 14 -33 -5 -33 -8 0 -13 4 -9 9 3 5 1 12 -4 16 -6 3 -8 -4 -6 -15 2 -12
-2 -23 -10 -27 -8 -3 -13 -9 -10 -13 3 -4 -2 -13 -10 -20 -8 -7 -15 -17 -15
-23 0 -10 24 15 47 50 9 12 12 13 10 3 -1 -8 -10 -23 -19 -34 -10 -11 -18 -26
-18 -34 0 -9 -7 -11 -22 -7 -17 5 -19 4 -9 -4 15 -10 26 -45 11 -36 -4 2 -15
-4 -25 -15 -15 -17 -16 -22 -4 -37 9 -11 10 -14 2 -9 -8 4 -13 2 -13 -4 0 -6
-4 -8 -10 -5 -6 3 -7 -1 -4 -9 3 -9 11 -13 18 -9 6 4 5 -1 -3 -10 -7 -9 -10
-17 -6 -17 4 0 2 -7 -5 -15 -7 -9 -19 -14 -27 -11 -8 3 -11 2 -8 -3 3 -6 -2
-14 -11 -19 -14 -8 -14 -10 -1 -24 14 -14 13 -17 -9 -27 -31 -14 -37 -14 -28
0 3 6 -5 3 -20 -6 -19 -13 -24 -21 -16 -30 7 -9 6 -16 -5 -25 -13 -11 -14 -10
-9 5 4 10 1 21 -7 26 -10 6 -10 9 -1 9 6 0 12 7 12 15 0 9 -9 15 -21 15 -21 0
-21 0 -2 18 10 9 13 13 6 9 -7 -5 -20 -4 -30 3 -15 10 -15 11 -1 6 9 -2 22 2
29 10 7 8 8 14 3 13 -21 -4 -26 2 -13 19 13 15 12 16 -3 3 -13 -9 -18 -10 -18
-2 0 7 -4 10 -9 6 -5 -3 -13 0 -17 7 -4 7 -4 10 1 6 4 -4 15 -2 23 5 13 9 14
9 8 0 -5 -9 -2 -11 10 -6 14 5 13 8 -7 19 -13 7 -18 13 -11 14 7 0 10 4 7 10
-3 6 1 7 10 4 11 -5 14 -2 8 12 -5 13 -3 15 7 9 9 -5 11 -4 6 4 -6 9 -11 9
-24 -1 -13 -11 -14 -11 -4 8 8 16 8 24 0 32 -7 7 -8 12 -4 12 5 0 3 7 -4 15
-10 12 -10 18 1 32 12 15 12 16 -6 10 l-20 -7 20 16 c20 16 20 16 -2 9 -18 -5
-22 -3 -17 9 8 21 -48 50 -67 33 -11 -10 -11 -9 -2 3 8 10 9 21 3 30 -9 14
-11 13 -14 -9 0 -5 -5 -13 -10 -18 -5 -5 -6 -3 -2 5 8 13 -4 16 -20 4 -5 -4
-6 -3 -1 3 15 20 6 27 -13 10 -13 -12 -20 -14 -20 -5 0 9 -4 10 -13 2 -7 -6
-18 -7 -26 -3 -9 6 -10 11 -2 15 6 4 11 2 11 -5 0 -10 3 -10 11 -2 6 6 19 9
28 6 13 -4 13 -3 2 5 -8 6 -10 15 -6 22 6 9 4 11 -5 5 -8 -5 -11 -4 -7 2 10
15 -18 24 -32 10 -8 -8 -11 -8 -11 0 0 20 17 24 45 11 15 -7 24 -17 21 -25 -4
-9 -2 -11 7 -6 20 13 36 12 48 -3 6 -8 16 -14 22 -14 5 0 2 10 -9 23 -19 22
-19 22 1 6 11 -9 32 -15 48 -14 15 1 27 -3 27 -8 0 -6 3 -7 6 -4 4 3 15 2 26
-4 11 -6 32 -13 46 -15 23 -3 24 -2 10 6 -10 6 -18 16 -18 23 0 8 3 8 9 -2 7
-11 11 -10 20 5 6 12 11 14 11 5 0 -10 6 -9 28 5 21 13 24 14 14 2 -10 -13
-10 -17 3 -22 9 -3 13 -2 10 4 -7 11 18 14 29 3 11 -12 37 -12 29 0 -4 7 0 8
11 4 10 -4 15 -3 11 3 -3 6 -1 10 4 10 6 0 11 5 11 12 0 9 -3 9 -12 0 -15 -15
-28 -16 -28 -2 0 5 3 9 8 8 4 -1 17 3 30 10 12 7 22 9 22 5 0 -4 7 1 16 12 16
22 35 26 46 10 5 -6 13 -4 24 6 12 13 13 18 3 24 -7 5 -10 4 -5 -3 3 -6 2 -13
-4 -17 -5 -3 -10 1 -10 9 0 8 8 20 18 25 9 6 14 11 9 11 -4 0 -1 10 6 23 8 12
13 34 12 49 -1 18 2 25 12 21 9 -4 11 0 7 11 -3 9 -9 14 -13 11 -4 -2 -6 6 -5
18 1 12 3 25 3 30 1 4 6 7 12 7 8 0 8 -4 1 -13 -7 -8 -6 -18 4 -31 8 -11 14
-15 14 -9 0 7 -5 15 -10 18 -8 5 -8 11 0 20 9 11 6 16 -10 25 -16 9 -19 15
-11 23 6 6 11 18 11 27 0 13 -1 13 -10 0 -6 -10 -8 -2 -4 28 3 29 1 42 -7 42
-7 0 -10 3 -7 6 4 3 19 -2 35 -11 l28 -17 -25 21 c-14 11 -29 21 -33 21 -5 0
-6 4 -3 8 2 4 -10 7 -27 7 -40 -2 -59 4 -51 16 3 5 0 9 -5 9 -6 0 -11 -5 -11
-11 0 -6 -7 -3 -16 5 -20 21 -27 20 -15 -2 8 -15 4 -17 -35 -16 -40 1 -44 -1
-38 -19 5 -15 3 -17 -7 -11 -12 6 -12 5 -1 -8 10 -13 9 -18 -5 -29 -9 -8 -14
-9 -10 -2 4 6 3 14 -2 18 -6 3 -8 13 -5 23 5 14 4 14 -4 2 -6 -8 -7 -19 -3
-25 5 -5 7 -18 6 -27 -3 -15 0 -16 18 -6 19 10 20 9 10 -3 -7 -9 -10 -27 -7
-42 3 -20 0 -27 -11 -27 -14 0 -13 -3 1 -25 9 -15 13 -25 8 -24 -20 3 -26 -2
-15 -15 9 -11 7 -13 -11 -12 -13 0 -22 -4 -21 -11 3 -14 -33 -9 -52 7 -10 8
-15 8 -21 -1 -4 -8 -3 -9 4 -5 7 4 12 2 12 -3 0 -20 -42 -12 -47 9 -3 11 -9
20 -14 20 -5 0 -5 -8 -2 -17 7 -17 6 -17 -20 0 -35 22 -45 22 -17 -1 18 -14
19 -19 7 -19 -9 0 -14 4 -11 9 3 4 -2 8 -10 8 -9 0 -16 5 -16 10 0 6 -5 10
-11 10 -5 0 -7 -5 -3 -12 4 -7 3 -8 -5 -4 -9 6 -9 11 1 24 12 14 10 14 -12 2
-20 -10 -23 -10 -13 0 10 11 9 16 -5 27 -12 11 -14 16 -4 19 6 3 12 10 12 16
0 7 -4 7 -13 0 -8 -7 -18 -6 -31 4 -10 7 -22 11 -26 9 -4 -2 -7 2 -7 10 0 8 4
12 8 9 4 -2 9 -1 12 3 2 5 2 2 1 -4 -2 -7 1 -13 7 -13 6 0 9 8 7 18 -2 10 -11
16 -23 14 -16 -3 -17 -2 -6 12 8 9 10 16 5 17 -5 0 0 4 11 9 16 7 17 9 3 9 -9
1 -22 -7 -28 -16 -9 -15 -10 -14 -4 6 4 17 3 21 -6 16 -8 -5 -11 -4 -6 3 4 6
13 9 21 5 22 -8 18 6 -7 29 -13 11 -17 16 -9 12 11 -5 13 -3 8 10 -5 11 -3 15
5 10 7 -5 9 -2 5 8 -3 9 0 21 6 28 10 10 8 12 -8 6 -16 -5 -16 -3 4 13 14 10
32 16 40 13 9 -3 5 4 -9 16 l-25 22 28 -10 c37 -13 40 -13 25 4 -7 8 -16 12
-20 9 -4 -2 -5 3 -1 13 5 15 7 15 15 0 5 -9 14 -14 19 -10 6 3 5 12 -3 22 -11
13 -11 14 1 7 11 -6 13 -4 8 11 -7 18 -6 18 7 1 11 -15 15 -15 19 -3 3 8 1 17
-6 20 -7 2 -4 5 6 5 13 1 16 -4 11 -23 -3 -13 -1 -27 4 -30 6 -4 8 3 4 16 -3
14 -1 19 6 14 7 -4 10 1 7 14 -2 11 0 18 5 15 4 -3 11 1 14 7 3 7 3 3 1 -9 -3
-12 -1 -24 4 -28 7 -4 8 1 4 12 -6 16 -5 17 13 3 17 -14 18 -14 6 2 -8 9 -11
22 -8 27 8 12 36 3 36 -11 0 -6 -8 -4 -17 3 -17 13 -17 12 -4 -4 14 -18 15
-18 32 4 l17 22 -3 -26 c-3 -28 9 -37 18 -14 4 9 7 9 15 -1 11 -15 45 -5 35
12 -4 6 1 5 10 -3 20 -16 23 -25 5 -15 -7 4 -5 -2 6 -14 19 -22 36 -21 36 1 0
8 -3 8 -9 -2 -6 -9 -11 -10 -15 -2 -4 6 -2 11 5 11 8 0 7 5 -2 17 -8 10 1 5
19 -10 19 -15 38 -27 43 -27 6 0 7 -5 3 -11 -5 -8 -1 -8 14 0 24 13 35 14 29
4 -3 -5 6 -8 19 -8 31 0 30 3 -3 17 -25 10 -26 12 -8 16 11 2 26 9 33 14 16
14 16 41 0 32 -10 -5 -10 -3 0 7 11 12 14 12 22 -1 5 -8 6 -18 3 -24 -3 -5 -1
-6 6 -2 9 6 8 14 -5 33 -13 20 -13 25 -2 21 20 -8 22 39 3 59 -8 8 -13 18 -10
23 3 4 -5 6 -17 3 -19 -4 -20 -3 -8 7 13 10 11 11 -7 7 -15 -3 -20 -1 -16 9 3
8 10 11 17 7 6 -3 7 -2 3 2 -12 14 -38 15 -31 2 3 -7 -1 -4 -9 6 -10 12 -17
14 -22 8 -3 -6 -11 -11 -18 -11 -8 0 -8 3 1 12 16 16 15 29 0 26 -7 -2 -12 3
-10 11 3 12 0 12 -12 1 -11 -8 -16 -9 -16 -1 0 6 -5 11 -11 11 -5 0 -8 -4 -5
-8 2 -4 1 -14 -5 -22 -7 -13 -9 -12 -10 3 -3 31 -4 35 -13 44 -5 4 -6 3 -3 -3
4 -7 -3 -11 -18 -11 -14 0 -22 4 -18 10 3 6 1 7 -6 3 -9 -6 -9 -11 1 -24 11
-13 10 -14 -9 -4 -12 7 -23 15 -25 19 -3 5 -3 3 -2 -4 2 -7 -2 -15 -8 -19 -7
-4 -8 -3 -4 4 4 7 2 12 -4 12 -6 0 -8 5 -4 13 6 9 5 9 -7 0 -10 -8 -19 -9 -27
-3 -9 7 -9 7 -2 -2 20 -24 9 -27 -23 -8 -26 16 -34 17 -34 6z m262 -36 c3 -5
1 -10 -4 -10 -6 0 -11 5 -11 10 0 6 2 10 4 10 3 0 8 -4 11 -10z m-440 -68 c-3
-3 -11 0 -18 7 -9 10 -8 11 6 5 10 -3 15 -9 12 -12z m329 -128 c9 -3 16 -11
16 -16 0 -6 -6 -5 -15 2 -8 6 -20 8 -26 4 -8 -4 -9 -3 -5 4 8 14 9 14 30 6z
m216 -8 c0 -2 -7 -7 -16 -10 -8 -3 -12 -2 -9 4 6 10 25 14 25 6z m-446 -381
c9 -14 12 -25 6 -25 -5 0 -10 4 -10 9 0 5 -7 17 -16 25 -8 9 -11 16 -6 16 5 0
17 -11 26 -25z m-238 -47 c4 -7 3 -8 -4 -4 -7 4 -12 2 -12 -5 0 -7 -3 -10 -6
-6 -6 5 3 27 11 27 2 0 7 -5 11 -12z m569 -218 c-3 -5 -1 -10 5 -10 6 0 8 -5
4 -11 -4 -8 -9 -7 -15 2 -7 12 -3 29 7 29 3 0 2 -4 -1 -10z m-153 -24 c3 2 8
-2 12 -11 4 -13 2 -14 -14 -5 -10 5 -22 16 -26 23 -6 9 -5 9 8 0 8 -7 17 -10
20 -7z m-72 -81 c0 -12 -19 -12 -23 0 -4 9 -1 12 9 8 7 -3 14 -7 14 -8z m990
-29 c0 -2 -7 -7 -16 -10 -8 -3 -12 -2 -9 4 6 10 25 14 25 6z m185 -5 c3 -5 2
-12 -3 -15 -5 -3 -9 1 -9 9 0 17 3 19 12 6z m-615 -72 c0 -5 -7 -9 -15 -9 -15
0 -20 12 -9 23 8 8 24 -1 24 -14z m485 13 c-3 -3 0 -11 6 -19 15 -18 1 -17
-17 1 -18 18 -18 23 1 23 8 0 13 -3 10 -5z m-1242 -53 c3 -23 0 -36 -8 -36 -8
0 -11 14 -9 38 3 32 1 37 -14 33 -14 -5 -15 -4 -2 5 20 14 28 3 33 -40z m37 8
c11 -5 9 -6 -4 -4 -11 1 -21 9 -23 17 -3 10 -2 11 4 4 4 -6 15 -14 23 -17z
m412 6 c-6 -2 -9 -10 -6 -15 4 -7 2 -8 -5 -4 -13 9 -5 26 12 25 9 0 8 -2 -1
-6z m-485 -35 c-3 -8 -6 -5 -6 6 -1 11 2 17 5 13 3 -3 4 -12 1 -19z m998 -12
l1 -27 -17 23 c-18 23 -16 42 4 35 7 -2 12 -16 12 -31z m-1171 6 c3 -5 -1 -9
-9 -9 -8 0 -12 4 -9 9 3 4 7 8 9 8 2 0 6 -4 9 -8z m1581 -12 c3 -5 1 -10 -4
-10 -6 0 -11 5 -11 10 0 6 2 10 4 10 3 0 8 -4 11 -10z m-580 -30 c-3 -5 -12
-10 -18 -10 -7 0 -6 4 3 10 19 12 23 12 15 0z m540 0 c3 -5 1 -10 -4 -10 -6 0
-11 5 -11 10 0 6 2 10 4 10 3 0 8 -4 11 -10z m20 -20 c-3 -5 -12 -10 -18 -10
-7 0 -6 4 3 10 19 12 23 12 15 0z m-1105 -36 c0 -2 -9 0 -20 6 -11 6 -20 13
-20 16 0 2 9 0 20 -6 11 -6 20 -13 20 -16z m370 6 c0 -5 -2 -10 -4 -10 -3 0
-8 5 -11 10 -3 6 -1 10 4 10 6 0 11 -4 11 -10z m-233 -15 c0 -8 -4 -15 -9 -15
-10 0 -11 14 -1 23 9 10 10 9 10 -8z m764 -38 c-10 -9 -11 -8 -5 6 3 10 9 15
12 12 3 -3 0 -11 -7 -18z m-1140 -26 c-11 -19 -6 -26 28 -46 10 -6 12 -4 6 5
-6 9 -4 11 5 5 8 -5 11 -4 6 3 -4 6 -13 9 -21 5 -18 -6 -21 22 -3 33 7 5 8 3
4 -5 -6 -8 -2 -11 10 -9 10 2 19 -3 20 -9 1 -7 2 -14 4 -15 12 -16 4 -34 -16
-34 -12 0 -20 4 -18 8 3 4 0 8 -5 8 -6 0 -11 -6 -11 -14 0 -8 -5 -18 -11 -22
-8 -4 -9 0 -4 15 4 15 3 21 -7 19 -7 -2 -16 -7 -19 -12 -4 -4 -10 -3 -13 3 -4
6 -2 11 5 11 7 0 4 7 -7 15 -13 10 -14 13 -3 10 9 -3 22 2 30 11 12 16 12 17
-3 11 -26 -10 -22 2 5 13 12 5 23 9 25 9 1 1 -2 -8 -7 -18z m306 -4 c-3 -8 -1
-20 3 -27 5 -8 2 -26 -8 -44 -9 -17 -15 -38 -13 -46 2 -12 0 -12 -10 -3 -10
10 -10 15 0 27 7 8 10 20 6 25 -3 6 -1 19 5 30 7 14 7 22 -1 27 -8 4 -7 9 2
15 19 12 22 11 16 -4z m43 2 c0 -5 -4 -7 -10 -4 -5 3 -10 -1 -10 -10 0 -9 -5
-13 -10 -10 -8 5 -7 11 1 21 14 17 29 18 29 3z m498 -11 c-6 -11 35 -49 48
-44 7 3 18 -1 24 -9 15 -18 -6 -31 -25 -15 -8 6 -19 9 -24 6 -5 -4 -13 -1 -17
5 -4 8 -3 9 4 5 18 -11 14 3 -8 26 -22 24 -26 42 -9 36 6 -2 9 -6 7 -10z
m-763 -8 c3 -5 1 -10 -4 -10 -6 0 -11 5 -11 10 0 6 2 10 4 10 3 0 8 -4 11 -10z
m176 -73 c-10 -9 -11 -8 -5 6 3 10 9 15 12 12 3 -3 0 -11 -7 -18z m1046 -42
c0 -8 -4 -15 -9 -15 -10 0 -11 14 -1 23 9 10 10 9 10 -8z m-194 -20 c-3 -9 -8
-14 -10 -11 -3 3 -2 9 2 15 9 16 15 13 8 -4z m348 -78 c-10 -9 -11 -8 -5 6 3
10 9 15 12 12 3 -3 0 -11 -7 -18z"/>
<path d="M355 670 c-3 -5 -5 -10 -3 -11 33 -8 38 -7 27 7 -14 17 -16 17 -24 4z"/>
<path d="M675 649 c-4 -6 -5 -12 -2 -15 2 -3 7 2 10 11 7 17 1 20 -8 4z"/>
<path d="M1230 2042 c0 -5 7 -15 15 -22 11 -9 18 -10 29 -1 11 9 15 8 20 -5 4
-9 4 -19 1 -22 -3 -3 -5 0 -5 6 0 7 -5 12 -11 12 -5 0 -7 -5 -3 -11 5 -8 1 -8
-14 0 -26 14 -35 14 -27 1 10 -16 -1 -11 -16 7 -12 15 -12 16 1 8 8 -4 12 -4
7 0 -4 5 -14 10 -22 11 -12 2 -13 -2 -4 -19 l10 -22 -18 21 -18 21 -18 -21
c-10 -12 -16 -16 -13 -9 4 6 1 15 -6 19 -7 4 -10 4 -6 -1 4 -4 1 -23 -7 -42
-18 -43 -18 -46 -2 -37 9 6 9 4 -1 -8 -9 -11 -10 -18 -2 -23 7 -4 7 -12 0 -26
-6 -11 -8 -25 -4 -32 5 -6 0 -5 -11 3 -18 15 -18 14 -1 -19 10 -18 14 -31 9
-29 -4 3 -16 -3 -25 -14 -20 -20 -16 -23 12 -8 13 7 19 6 23 -5 4 -10 1 -12
-11 -8 -15 6 -15 5 -3 -10 12 -15 12 -17 -1 -12 -9 4 -15 0 -15 -9 0 -8 4 -13
9 -10 4 3 8 -2 8 -11 0 -10 5 -13 13 -9 9 6 9 5 0 -8 -7 -8 -10 -18 -6 -21 3
-4 1 -7 -6 -7 -6 0 -11 8 -9 17 2 11 -4 18 -17 20 -15 2 -16 1 -5 -5 25 -12
21 -143 -5 -173 l-20 -22 32 23 c18 13 29 28 26 33 -3 6 -1 7 6 3 9 -6 9 -11
1 -21 -7 -9 -8 -15 -1 -20 7 -4 6 -13 -2 -26 -10 -16 -9 -21 3 -29 21 -14 3
-12 -23 2 -19 10 -20 9 -10 -4 7 -8 9 -19 5 -23 -4 -5 -1 -5 7 0 9 5 12 3 9
-6 -3 -8 -14 -14 -25 -14 -12 0 -24 -3 -27 -6 -3 -3 11 -5 32 -5 21 1 35 -3
32 -9 -3 -6 -11 -9 -18 -9 -7 1 -11 -3 -9 -10 3 -6 10 -10 16 -8 7 1 9 -3 5
-9 -3 -6 0 -15 7 -20 9 -6 10 -9 2 -9 -6 0 -18 7 -26 15 -13 13 -16 12 -22 -2
-3 -10 -3 -14 1 -10 11 11 43 -23 37 -39 -3 -8 1 -14 8 -14 9 0 10 -3 4 -8
-13 -9 -14 -45 -2 -53 5 -3 2 -9 -6 -12 -11 -4 -15 0 -12 14 2 11 0 17 -6 14
-5 -4 -7 -11 -4 -16 4 -5 -2 -9 -12 -9 -11 0 -6 -6 15 -17 23 -11 29 -18 20
-24 -7 -5 -16 -3 -20 4 -6 9 -8 9 -8 0 0 -7 9 -18 19 -25 16 -10 18 -15 8 -28
-8 -10 -5 -9 9 3 11 9 24 14 28 10 3 -4 23 -8 44 -9 31 -1 37 -5 36 -22 0 -12
3 -19 8 -16 4 3 8 14 8 25 0 21 15 25 26 7 4 -6 3 -8 -2 -5 -6 3 -11 -4 -11
-15 -2 -20 -1 -20 12 -2 8 11 15 26 15 34 1 10 5 7 12 -7 6 -13 15 -23 21 -23
5 0 5 6 -2 13 -6 8 -7 17 -3 21 7 7 8 11 11 37 0 6 7 9 14 6 15 -6 17 27 2 40
-4 5 -5 3 -2 -3 3 -6 0 -11 -8 -11 -13 0 -13 2 0 17 8 9 16 40 19 70 5 70 5
68 16 50 6 -9 10 -10 10 -3 0 6 -5 15 -10 18 -8 5 -7 11 1 21 6 8 8 14 3 14
-4 0 -3 5 4 12 7 7 12 20 12 30 0 23 16 23 29 1 8 -15 12 -16 23 -4 7 8 8 11
2 8 -7 -4 -15 0 -18 8 -4 13 -2 13 14 5 12 -7 21 -7 25 0 12 19 26 10 20 -12
-5 -18 -4 -20 4 -8 6 8 15 16 21 16 5 1 11 2 13 4 9 7 36 7 31 -1 -3 -5 4 -9
15 -9 12 0 21 -4 21 -10 0 -18 17 -11 29 13 6 12 9 14 7 5 -3 -10 0 -20 6 -24
6 -4 8 -3 5 3 -9 14 12 29 41 31 14 0 20 -3 16 -10 -4 -6 -3 -8 4 -5 5 4 8 17
4 29 -3 12 -1 19 4 15 6 -3 10 4 10 16 -1 12 4 22 9 22 6 0 9 -8 9 -17 -1 -10
2 -15 6 -13 7 4 7 27 0 45 -1 3 -2 9 -1 14 1 5 -4 4 -12 -3 -12 -9 -16 -8 -21
4 -3 9 0 15 9 15 8 0 15 4 15 10 0 5 -7 6 -17 3 -10 -4 -14 -2 -10 4 4 6 1 14
-5 17 -7 3 -2 4 12 1 14 -3 19 -2 13 1 -7 3 -13 12 -13 20 0 8 -5 14 -11 14
-5 0 -7 -6 -4 -12 4 -7 -3 -2 -14 11 -19 21 -26 20 -22 -2 1 -5 -3 -6 -8 -3
-5 4 -8 15 -6 26 2 11 -1 22 -6 26 -5 3 -9 2 -8 -3 3 -19 -2 -27 -10 -15 -7
11 -9 11 -14 -1 -4 -11 0 -15 13 -12 13 3 17 -1 13 -12 -3 -8 -9 -11 -12 -6
-3 5 -18 9 -33 8 -15 -1 -25 2 -22 7 3 4 11 5 17 1 7 -4 6 0 -2 10 -14 17 -26
24 -17 9 3 -4 -14 -9 -36 -9 -22 0 -44 -6 -48 -13 -5 -8 -9 -7 -13 5 -5 10 -3
14 5 9 7 -4 8 -3 4 5 -4 6 -12 9 -17 5 -5 -3 -7 -9 -4 -14 3 -5 0 -12 -6 -16
-8 -4 -9 -3 -5 4 4 7 2 12 -3 12 -6 0 -11 8 -12 18 0 14 -2 14 -8 -3 -5 -12
-4 -23 2 -27 5 -3 -1 -5 -16 -5 -14 1 -23 5 -20 10 2 4 -1 7 -6 7 -6 0 -11 5
-11 11 0 8 5 7 15 -1 9 -7 18 -10 22 -6 3 3 0 6 -8 6 -12 0 -11 2 1 11 13 9
13 9 0 7 -9 -2 -15 2 -15 7 0 6 4 9 8 7 5 -1 6 2 2 8 -3 6 -11 8 -16 5 -8 -6
-10 1 -8 22 0 4 -8 11 -18 15 -13 6 -11 7 10 4 29 -4 45 8 26 20 -8 5 -9 3 -4
-7 8 -12 6 -12 -8 0 -18 14 -23 26 -8 17 5 -4 12 0 14 6 4 10 6 10 6 1 1 -7 8
-13 17 -13 9 0 12 -5 8 -12 -5 -7 -3 -8 5 -4 7 5 10 15 6 23 -4 13 -3 14 10 3
12 -10 15 -10 15 0 0 8 3 10 7 7 3 -4 -2 -17 -13 -29 -12 -14 -13 -18 -3 -10
9 6 20 8 24 4 5 -4 5 -1 1 6 -8 13 6 17 18 5 12 -12 35 -11 46 2 12 15 -5 16
-27 2 -8 -5 -13 -4 -13 2 0 6 5 12 10 12 20 3 25 4 39 13 9 6 12 5 7 -2 -7
-12 27 -35 38 -25 3 3 6 2 6 -4 0 -5 6 -10 13 -10 8 0 14 6 14 12 0 7 -11 11
-24 9 -12 -1 -23 1 -23 5 0 4 14 8 30 8 27 0 35 -7 31 -29 -2 -17 18 -7 24 11
7 24 27 32 46 19 11 -8 11 -9 -3 -4 -10 3 -20 1 -22 -3 -3 -5 5 -8 17 -7 18 1
22 7 22 34 -1 26 3 32 20 33 19 0 19 1 -2 9 -13 5 -23 12 -23 15 0 4 5 3 10 0
6 -4 10 5 10 20 0 15 -4 24 -10 20 -6 -4 -1 10 10 29 11 20 15 36 10 36 -6 0
-10 -4 -10 -10 0 -5 -5 -10 -12 -10 -6 0 -9 3 -5 6 9 9 -14 29 -40 36 -17 5
-23 2 -23 -10 0 -14 -2 -13 -13 2 -13 18 -83 31 -91 18 -2 -4 12 -7 31 -7 24
0 38 -5 40 -15 4 -12 3 -12 -5 -2 -5 8 -13 14 -17 14 -4 0 -12 -6 -16 -14 -7
-10 -9 -10 -9 0 0 7 -6 12 -12 10 -7 -1 -24 4 -38 11 l-25 14 20 -24 c11 -13
13 -18 5 -11 -17 14 -34 16 -25 2 10 -16 -1 -11 -16 7 -10 11 -10 14 -1 9 7
-4 12 -2 12 4 0 7 -6 10 -14 7 -7 -3 -19 0 -26 6 -10 10 -10 7 0 -11 6 -13 9
-26 6 -30 -3 -3 -6 -1 -6 4 0 5 -9 10 -20 11 -13 1 -18 -2 -13 -10 4 -7 0 -6
-10 2 -9 7 -17 11 -17 7 0 -4 -12 1 -27 11 l-28 17 20 -24 c11 -14 13 -19 5
-12 -8 6 -18 12 -23 12 -4 0 -5 -6 -1 -12 5 -9 2 -9 -9 1 -18 15 -23 26 -7 16
6 -3 10 -1 10 5 0 7 -7 10 -15 7 -8 -4 -17 -2 -21 4 -4 7 -10 6 -19 -1 -9 -8
-17 -6 -29 5 -9 9 -16 12 -16 7z m122 -310 c-7 -2 -10 -8 -6 -13 3 -5 0 -9 -5
-9 -13 0 -13 3 -5 24 3 9 11 13 17 9 8 -5 7 -8 -1 -11z m18 -36 c0 -3 -4 -8
-10 -11 -5 -3 -10 -1 -10 4 0 6 5 11 10 11 6 0 10 -2 10 -4z m160 -36 c0 -5
-5 -10 -11 -10 -5 0 -7 5 -4 10 3 6 8 10 11 10 2 0 4 -4 4 -10z m-400 -20 c0
-4 -6 -10 -14 -13 -12 -5 -14 2 -7 31 2 7 21 -10 21 -18z m-6 -39 c3 -5 -1
-11 -9 -14 -9 -4 -12 -1 -8 9 6 16 10 17 17 5z m486 -143 c0 -11 -12 -10 -30
2 -12 7 -10 9 8 7 12 0 22 -5 22 -9z m-239 -36 c-6 -10 -7 -22 -4 -26 3 -3 -1
-6 -10 -6 -9 0 -17 5 -17 10 0 6 5 10 11 10 5 0 7 5 4 10 -3 6 -1 10 5 10 7 0
9 7 5 18 -5 13 -3 14 5 6 9 -9 9 -17 1 -32z m-19 -65 c-5 -7 -8 -22 -7 -34 1
-12 -2 -20 -6 -17 -4 2 -6 19 -4 37 4 41 3 39 15 32 7 -4 7 -11 2 -18z"/>
<path d="M1365 2040 c-3 -5 -1 -10 4 -10 6 0 11 5 11 10 0 6 -2 10 -4 10 -3 0
-8 -4 -11 -10z"/>
<path d="M1520 2040 c0 -5 5 -10 11 -10 5 0 7 5 4 10 -3 6 -8 10 -11 10 -2 0
-4 -4 -4 -10z"/>
<path d="M1630 2040 c0 -5 5 -10 11 -10 5 0 7 5 4 10 -3 6 -8 10 -11 10 -2 0
-4 -4 -4 -10z"/>
<path d="M1950 2040 c0 -5 5 -10 11 -10 5 0 7 5 4 10 -3 6 -8 10 -11 10 -2 0
-4 -4 -4 -10z"/>
<path d="M2000 2029 c0 -5 -5 -7 -12 -3 -7 4 -8 3 -4 -4 8 -13 -20 -12 -41 1
-13 8 -14 7 -17 -12 0 -5 -5 -13 -10 -18 -5 -5 -6 -3 -2 5 4 6 3 12 -3 12 -5
0 -12 -6 -14 -12 -4 -10 -6 -10 -6 0 -1 6 -6 12 -12 12 -5 0 -7 -4 -4 -10 9
-14 -18 -12 -35 3 -11 9 -11 8 0 -7 8 -11 16 -33 16 -51 1 -25 -4 -34 -22 -41
-21 -8 -21 -10 -6 -24 14 -13 15 -13 10 1 -3 9 -1 16 6 16 6 0 12 -8 12 -18 0
-10 -4 -15 -8 -13 -11 7 -10 -4 3 -28 8 -15 8 -19 0 -14 -7 5 -10 -1 -7 -16 2
-15 -3 -27 -17 -34 -13 -7 -16 -14 -8 -18 6 -4 11 -2 11 3 0 6 8 11 18 10 10
0 12 -3 5 -6 -7 -2 -13 -9 -13 -14 0 -6 5 -7 10 -4 6 3 10 1 10 -5 0 -6 -6
-10 -13 -8 -13 3 -17 -3 -17 -23 0 -8 6 -7 18 2 15 12 16 12 6 -1 -6 -8 -10
-22 -8 -30 1 -8 5 -25 8 -36 3 -15 0 -21 -12 -20 -12 1 -16 -9 -17 -42 0 -24
3 -46 6 -48 4 -2 6 7 5 21 -2 13 1 22 6 19 5 -3 7 -12 4 -20 -3 -7 -1 -16 4
-19 7 -4 6 -13 0 -25 -7 -13 -7 -21 0 -25 7 -4 7 -11 2 -18 -5 -7 -8 -19 -6
-27 1 -8 5 -24 8 -36 3 -13 -1 -21 -10 -21 -9 0 -11 4 -4 12 7 8 3 18 -13 31
l-22 19 19 -22 c17 -20 17 -23 2 -29 -16 -6 -23 -25 -8 -23 19 3 30 -2 36 -17
6 -15 4 -15 -10 -3 -16 13 -16 12 -6 -8 7 -12 9 -29 5 -39 -4 -10 -2 -15 3
-11 5 3 10 -3 10 -13 0 -10 -4 -16 -8 -13 -5 2 -6 -8 -2 -24 3 -15 6 -40 6
-55 0 -15 4 -26 8 -23 3 2 7 -2 7 -9 0 -8 -8 -11 -21 -8 -12 3 -17 1 -13 -4 4
-4 31 -8 59 -9 36 -1 53 -5 56 -15 3 -13 2 -13 -8 0 -10 13 -11 12 -6 -3 3
-10 6 -21 6 -23 0 -2 8 4 18 14 11 9 17 20 15 25 -2 4 1 7 6 7 6 0 11 -4 11
-9 0 -5 8 -8 18 -6 9 1 22 0 27 -4 6 -3 21 -7 35 -9 14 -2 30 -8 35 -14 7 -7
3 -8 -13 -3 -19 5 -25 2 -29 -14 -3 -12 -10 -21 -15 -21 -5 0 -7 -4 -3 -9 3
-5 1 -12 -5 -16 -6 -4 -8 -11 -4 -16 3 -5 0 -8 -8 -7 -7 2 -12 -2 -11 -8 1 -6
-5 -11 -13 -11 -12 0 -12 3 1 17 8 9 12 20 8 25 -5 4 -2 5 6 0 10 -6 12 -4 6
5 -5 9 -4 11 3 6 18 -11 14 0 -5 15 -10 7 -15 9 -11 5 4 -5 3 -15 -3 -23 -6
-7 -8 -13 -4 -13 5 0 0 -9 -10 -20 -10 -11 -14 -20 -9 -20 5 0 2 -5 -6 -10
-11 -7 -11 -10 -2 -10 7 0 10 -4 7 -10 -4 -6 1 -7 12 -4 11 3 14 2 8 -3 -15
-11 -16 -83 -2 -83 6 0 2 -7 -9 -15 -10 -8 -15 -15 -10 -15 5 0 3 -6 -3 -14
-9 -10 -8 -15 3 -19 9 -4 18 -1 22 5 4 6 3 8 -4 4 -7 -4 -10 2 -9 14 1 19 3
20 13 5 7 -9 10 -24 7 -33 -4 -10 -2 -13 5 -8 6 3 13 2 16 -3 4 -5 1 -13 -5
-17 -8 -5 -9 -3 -4 7 5 8 4 10 0 6 -13 -11 -15 -38 -2 -30 6 4 8 0 4 -11 -5
-14 -3 -15 13 -6 13 7 21 7 25 0 8 -12 37 -9 47 4 4 6 10 -2 13 -17 5 -19 11
-25 19 -19 15 13 59 8 64 -7 3 -9 7 -9 18 0 16 13 16 13 19 -18 1 -12 -2 -20
-6 -17 -5 3 -9 0 -9 -5 0 -10 14 -15 33 -12 5 1 6 -3 2 -9 -4 -7 -12 -7 -26 0
-20 11 -43 5 -35 -9 3 -4 -5 -7 -17 -8 -12 0 -16 1 -9 4 18 7 14 22 -5 18 -10
-1 -22 0 -28 4 -5 3 -14 6 -20 6 -5 0 -9 9 -7 20 2 18 1 18 -10 4 -12 -14 -15
-14 -27 -2 -11 12 -15 12 -30 -1 -14 -13 -20 -13 -31 -3 -10 9 -11 9 -6 0 9
-16 -12 -55 -25 -47 -6 3 -3 11 7 18 14 11 15 14 3 21 -8 5 -11 5 -7 0 4 -4
-3 -16 -15 -27 -12 -11 -16 -17 -9 -13 6 3 13 1 13 -4 5 -37 7 -52 9 -58 1 -5
2 -11 1 -15 0 -4 7 -4 17 -1 14 6 15 4 4 -9 -10 -13 -10 -18 -1 -24 7 -4 9 -3
6 3 -4 6 0 13 8 17 17 6 30 -10 15 -19 -16 -10 -12 -25 8 -25 13 0 14 2 4 9
-11 7 -10 9 3 14 10 5 14 3 9 -5 -5 -7 0 -9 14 -6 12 4 20 3 17 -2 -3 -4 2
-11 11 -14 10 -4 13 -2 8 6 -4 7 -3 8 4 4 17 -10 15 -24 -5 -29 -10 -3 -6 -4
8 -4 20 1 25 5 21 16 -5 14 -4 14 10 1 9 -8 14 -18 12 -21 -2 -3 3 -6 11 -6
18 0 19 9 3 27 -7 8 -4 7 8 -3 23 -19 39 -23 29 -7 -3 6 1 7 10 4 8 -4 22 -1
29 5 10 9 16 9 21 1 5 -8 11 -7 23 2 13 11 14 11 8 -1 -6 -9 -5 -12 5 -9 8 3
13 12 11 19 -3 11 -1 11 9 2 9 -9 9 -16 1 -26 -9 -10 -9 -14 1 -14 7 0 14 9
14 19 1 11 7 26 14 34 10 13 15 12 38 -2 l26 -17 -19 21 c-12 14 -14 22 -7 22
7 0 10 4 6 9 -3 5 0 13 6 17 7 4 9 3 6 -3 -4 -6 -1 -13 6 -16 10 -4 13 2 9 18
-2 12 1 25 6 29 6 4 8 -3 6 -16 -4 -21 -4 -21 5 -3 5 12 5 27 0 37 -8 14 -5
16 13 13 23 -4 23 -4 -2 15 l-25 20 26 -9 c19 -7 26 -6 26 4 0 7 -6 11 -13 8
-18 -7 -28 17 -14 30 10 9 11 9 6 0 -4 -7 -2 -13 4 -13 7 0 9 7 6 16 -3 9 -6
18 -6 21 0 3 -6 0 -14 -6 -12 -10 -13 -8 -9 8 3 13 1 21 -8 21 -7 0 -9 3 -6 6
4 4 12 2 20 -4 10 -8 13 -7 13 7 0 12 -6 17 -18 13 -10 -2 -18 1 -18 7 0 7 4
10 8 7 5 -3 9 1 9 9 0 12 -4 12 -20 -2 -11 -10 -17 -13 -13 -6 4 8 -4 18 -22
27 -16 8 -34 22 -41 30 -7 9 -18 13 -24 9 -6 -4 -7 -1 -2 7 6 10 4 12 -8 7 -9
-3 -19 -2 -22 3 -3 5 -14 7 -25 5 -11 -2 -20 0 -20 6 0 8 15 13 33 10 4 0 7 5
7 12 0 8 3 7 10 -3 5 -8 20 -15 34 -15 23 -1 23 0 7 21 -9 12 -17 18 -19 13
-5 -12 -23 -12 -19 0 1 5 -2 9 -7 9 -5 0 -13 6 -17 14 -5 7 -9 8 -9 2 0 -17
-28 -12 -47 8 -9 11 -11 18 -5 18 7 0 12 -5 12 -11 0 -8 6 -7 17 2 14 12 16
12 8 0 -6 -11 -4 -13 7 -8 9 3 26 -2 39 -11 21 -15 22 -15 16 4 -7 19 -7 19 8
0 8 -11 15 -16 15 -12 0 5 11 1 25 -8 18 -12 23 -13 19 -2 -3 7 2 21 11 30 9
9 13 21 9 27 -4 7 -3 9 3 6 12 -8 23 14 23 44 0 14 -4 18 -12 13 -10 -6 -10
-4 0 8 10 13 10 17 -3 22 -9 3 -13 2 -10 -4 3 -6 -1 -7 -10 -4 -11 5 -13 10
-5 19 8 9 4 12 -17 9 -15 -1 -34 2 -43 7 -11 7 -9 8 10 4 24 -6 24 -5 6 9 -10
9 -23 13 -29 9 -6 -3 -7 -1 -3 5 4 6 14 8 23 5 12 -5 14 -3 8 8 -7 11 -5 11
10 -1 17 -14 18 -13 12 2 -4 12 -1 16 13 13 22 -4 40 15 43 44 0 11 5 17 9 15
4 -3 8 2 8 11 0 9 -4 14 -8 11 -11 -7 -8 66 3 84 5 8 4 11 -2 7 -6 -4 -16 -1
-22 7 -6 7 -22 12 -36 11 -14 -2 -27 1 -30 5 -3 5 5 7 18 4 16 -2 24 1 24 11
0 10 -5 12 -19 4 -10 -5 -18 -7 -18 -3 0 3 -6 1 -13 -5 -8 -6 -17 -8 -20 -4
-4 3 -7 0 -7 -7 0 -11 -3 -11 -12 -2 -9 9 -15 9 -27 -1 -14 -11 -14 -10 -2 5
7 10 17 15 22 12 5 -3 17 0 26 6 15 9 14 10 -7 4 -23 -6 -24 -6 -10 12 14 18
13 18 -8 -1 -20 -16 -25 -17 -34 -5 -8 12 -9 12 -4 -2 3 -10 1 -18 -5 -18 -6
0 -7 -6 -3 -12 4 -7 -8 3 -25 22 -27 29 -29 30 -15 7 9 -15 14 -30 10 -34 -3
-3 -6 -1 -6 6 0 7 -4 9 -10 6 -5 -3 -10 1 -10 10 0 15 -2 15 -22 1 -26 -18
-38 -20 -38 -6 0 6 3 9 8 9 19 -3 29 2 29 17 0 14 -2 15 -11 2 -12 -16 -69
-19 -83 -4 -5 5 -3 6 5 2 6 -4 12 -2 12 3 0 6 -5 11 -12 11 -6 0 -9 2 -6 5 8
8 39 -6 33 -15 -3 -5 5 -6 17 -2 22 5 22 6 -5 15 -28 9 -37 27 -14 27 7 0 8 3
2 8 -15 11 -18 62 -4 62 7 0 9 3 6 6 -4 4 -13 2 -20 -4 -10 -9 -14 -8 -14 3 0
8 9 17 19 21 22 6 24 21 3 21 -8 0 -12 -4 -9 -9 3 -4 1 -8 -4 -8 -13 0 -12 49
1 57 6 4 8 0 4 -10 -4 -10 -2 -14 7 -11 7 3 13 11 13 19 0 8 -4 12 -9 9 -4 -3
-8 0 -8 7 0 8 -5 7 -17 -2 -16 -12 -17 -12 -7 1 5 8 9 34 8 58 -1 33 3 46 19
57 15 10 17 15 7 15 -13 0 -13 2 0 11 12 8 10 9 -7 4 -29 -8 -30 9 -1 22 19 8
20 10 4 16 -10 4 -15 3 -11 -3 3 -6 2 -10 -4 -10 -5 0 -9 8 -9 18 0 9 -1 22
-3 27 -2 6 0 10 6 10 5 0 8 -7 6 -15 -1 -8 -1 -13 1 -10 2 3 10 14 18 24 8 11
11 17 5 14 -16 -9 -49 28 -34 38 8 4 10 3 5 -4 -4 -7 -2 -12 3 -12 6 0 11 7
11 15 0 8 -4 15 -9 15 -5 0 -12 8 -16 18 -5 13 -3 14 6 5 13 -13 39 -7 39 9 0
6 -7 5 -15 -2 -14 -12 -15 -9 -10 21 4 23 2 29 -4 19 -5 -8 -7 -18 -4 -24 3
-5 1 -6 -4 -3 -12 8 -5 55 11 77 9 13 9 13 -5 3 -9 -7 -19 -10 -22 -6 -4 3 -1
13 6 22 10 14 10 14 -4 4 -12 -10 -18 -10 -28 0 -10 9 -11 9 -6 -3 4 -12 -1
-16 -19 -16 -14 0 -22 4 -20 8 3 5 9 6 13 4 4 -3 8 4 8 15 1 10 0 19 -3 19 -2
0 -4 -5 -4 -11z m-35 -21 c5 4 5 1 1 -6 -6 -10 -11 -10 -22 -1 -8 6 -14 14
-14 16 0 3 6 0 13 -6 8 -6 18 -7 22 -3z m125 -302 c0 -2 -7 -7 -16 -10 -8 -3
-12 -2 -9 4 6 10 25 14 25 6z m-240 -106 c8 -15 8 -18 -3 -14 -8 3 -14 11 -14
19 0 20 4 19 17 -5z m240 -160 c0 -4 -7 -11 -16 -14 -13 -5 -14 -4 -6 7 7 8 8
18 4 22 -4 5 -1 5 6 1 6 -4 12 -11 12 -16z m57 -326 c0 -6 -9 -9 -19 -6 -10 2
-18 7 -18 11 0 4 8 7 18 7 10 0 19 -5 19 -12z m163 10 c0 -8 -19 -13 -24 -6
-3 5 1 9 9 9 8 0 15 -2 15 -3z m-123 -19 c0 -8 -4 -12 -9 -9 -5 3 -6 10 -3 15
9 13 12 11 12 -6z m-87 -30 c0 -2 -6 -5 -13 -8 -8 -3 -14 1 -14 8 0 7 6 11 14
8 7 -3 13 -6 13 -8z m100 -151 c0 5 11 -1 25 -14 14 -13 25 -19 25 -14 0 6 11
10 25 10 27 0 19 -15 -11 -21 -11 -2 -19 -4 -19 -5 0 -1 -8 -3 -18 -5 -9 -2
-15 1 -11 6 3 5 -3 10 -13 10 -17 1 -17 2 0 6 9 2 15 8 12 13 -3 5 -12 7 -20
3 -10 -3 -15 1 -15 13 0 16 2 17 10 4 5 -8 10 -11 10 -6z m130 -44 c0 -5 -5
-10 -11 -10 -5 0 -7 5 -4 10 3 6 8 10 11 10 2 0 4 -4 4 -10z m-242 -119 c2 -1
0 -6 -3 -11 -5 -8 -11 -8 -19 -1 -7 6 -15 8 -18 5 -3 -3 -9 0 -13 6 -6 9 20
10 53 1z"/>
<path d="M480 2020 c20 -13 33 -13 25 0 -3 6 -14 10 -23 10 -15 0 -15 -2 -2
-10z"/>
<path d="M1386 2022 c-3 -5 1 -9 9 -9 8 0 15 4 15 9 0 4 -4 8 -9 8 -6 0 -12
-4 -15 -8z"/>
<path d="M445 2010 c-4 -6 -10 -8 -15 -5 -5 3 -13 -3 -19 -12 -9 -16 -12 -16
-20 -3 -8 12 -10 11 -9 -6 2 -21 3 -21 35 -6 18 9 33 20 33 24 0 5 5 6 12 2 7
-4 8 -3 4 4 -9 15 -13 15 -21 2z"/>
<path d="M1816 1958 c3 -4 11 -5 19 -1 21 7 19 12 -4 10 -11 0 -18 -5 -15 -9z"/>
<path d="M1735 1941 c-3 -5 0 -13 6 -17 7 -4 9 -3 5 4 -3 5 0 13 6 15 9 4 10
6 1 6 -6 1 -14 -3 -18 -8z"/>
<path d="M1837 1943 c-10 -9 -9 -23 1 -23 5 0 9 7 9 15 0 17 -1 18 -10 8z"/>
<path d="M1096 1910 c4 -25 2 -30 -8 -25 -11 7 -11 5 0 -6 11 -12 14 -12 22 1
6 9 4 20 -3 29 -7 8 -10 16 -9 18 2 3 1 7 -1 10 -3 3 -3 -10 -1 -27z"/>
<path d="M1756 1895 c-11 -8 -15 -15 -9 -15 7 0 15 5 18 10 4 6 11 7 17 4 7
-4 8 -2 4 4 -9 14 -7 15 -30 -3z"/>
<path d="M247 1860 c-9 -11 -13 -20 -7 -20 5 0 14 9 20 20 6 11 9 20 8 20 -2
0 -11 -9 -21 -20z"/>
<path d="M1826 1847 c3 -10 9 -15 12 -12 3 3 0 11 -7 18 -10 9 -11 8 -5 -6z"/>
<path d="M1070 1845 c0 -5 5 -17 10 -25 5 -8 10 -10 10 -5 0 6 -5 17 -10 25
-5 8 -10 11 -10 5z"/>
<path d="M1726 1834 c-5 -13 -4 -14 7 -6 8 7 18 8 22 4 5 -4 5 -1 1 6 -10 17
-23 15 -30 -4z"/>
<path d="M1805 1820 c-4 -6 -3 -10 2 -9 20 3 27 -2 13 -11 -9 -6 -10 -10 -3
-10 19 0 24 17 9 29 -10 9 -16 9 -21 1z"/>
<path d="M1535 1769 c-4 -6 -5 -12 -2 -15 2 -3 7 2 10 11 7 17 1 20 -8 4z"/>
<path d="M794 1736 c1 -8 5 -18 8 -22 4 -3 5 1 4 10 -1 8 -5 18 -8 22 -4 3 -5
-1 -4 -10z"/>
<path d="M1388 1743 c7 -3 16 -2 19 1 4 3 -2 6 -13 5 -11 0 -14 -3 -6 -6z"/>
<path d="M1530 1700 c0 -5 5 -10 11 -10 5 0 7 5 4 10 -3 6 -8 10 -11 10 -2 0
-4 -4 -4 -10z"/>
<path d="M144 1678 c-4 -7 -4 -10 1 -6 4 4 15 2 24 -5 14 -11 14 -10 2 6 -16
20 -18 21 -27 5z"/>
<path d="M2083 1642 c0 -25 3 -38 8 -31 4 7 5 17 2 21 -2 5 1 16 9 25 7 10 8
14 1 10 -6 -4 -13 -1 -16 5 -2 7 -4 -6 -4 -30z"/>
<path d="M433 1663 c4 -3 2 -12 -4 -19 -7 -8 -6 -14 2 -20 7 -4 9 -3 5 4 -3 6
-2 13 4 17 14 8 13 25 -2 25 -6 0 -8 -3 -5 -7z"/>
<path d="M1820 1659 c0 -5 5 -7 10 -4 6 3 10 8 10 11 0 2 -4 4 -10 4 -5 0 -10
-5 -10 -11z"/>
<path d="M160 1640 c0 -5 5 -10 10 -10 6 0 10 5 10 10 0 6 -4 10 -10 10 -5 0
-10 -4 -10 -10z"/>
<path d="M913 1609 c-2 -23 3 -25 10 -4 4 8 3 16 -1 19 -4 3 -9 -4 -9 -15z"/>
<path d="M815 1609 c-4 -6 -5 -12 -2 -15 2 -3 7 2 10 11 7 17 1 20 -8 4z"/>
<path d="M415 1593 c-3 -10 -3 -14 1 -10 4 4 13 2 21 -4 17 -15 17 -1 -1 16
-12 12 -15 12 -21 -2z"/>
<path d="M935 1599 c-3 -4 2 -6 10 -5 21 3 28 13 10 13 -9 0 -18 -4 -20 -8z"/>
<path d="M134 1530 c0 -13 4 -16 10 -10 7 7 7 13 0 20 -6 6 -10 3 -10 -10z"/>
<path d="M996 1522 c-2 -4 2 -16 10 -27 8 -10 14 -14 14 -7 0 7 7 9 18 5 9 -3
14 -3 10 1 -3 4 -14 9 -25 11 -10 1 -17 8 -15 14 2 13 -4 15 -12 3z"/>
<path d="M1100 1514 c0 -9 -5 -12 -12 -8 -7 4 -8 3 -4 -5 6 -9 11 -9 22 0 7 6
11 15 8 20 -8 14 -14 11 -14 -7z"/>
<path d="M1790 1521 c0 -6 4 -13 10 -16 6 -3 7 1 4 9 -7 18 -14 21 -14 7z"/>
<path d="M1831 1511 c-6 -10 -8 -21 -4 -24 3 -4 1 -13 -6 -21 -9 -11 -8 -15 3
-19 10 -4 13 -1 9 9 -3 8 1 14 8 14 10 0 10 3 1 12 -7 7 -8 17 -1 30 5 10 7
18 5 18 -3 0 -10 -8 -15 -19z"/>
<path d="M1002 1454 c-7 -8 -8 -14 -3 -14 10 0 25 19 20 25 -2 1 -10 -3 -17
-11z"/>
<path d="M1033 1455 c0 -8 4 -12 9 -9 5 3 6 10 3 15 -9 13 -12 11 -12 -6z"/>
<path d="M737 1449 c7 -7 15 -10 18 -7 3 3 -2 9 -12 12 -14 6 -15 5 -6 -5z"/>
<path d="M1460 1440 c-6 -11 -8 -20 -6 -20 3 0 10 9 16 20 6 11 8 20 6 20 -3
0 -10 -9 -16 -20z"/>
<path d="M1530 1450 c0 -7 -7 -10 -14 -7 -10 4 -13 1 -9 -9 4 -10 9 -12 18 -4
6 5 15 7 18 3 4 -3 7 -1 7 5 0 6 -4 14 -10 17 -5 3 -10 1 -10 -5z"/>
<path d="M1396 1413 c-6 -14 -5 -15 5 -6 7 7 10 15 7 18 -3 3 -9 -2 -12 -12z"/>
<path d="M710 1404 c-8 -8 -9 -14 -3 -12 6 2 10 -1 10 -7 -1 -5 -7 -9 -14 -9
-7 1 -9 -5 -5 -15 5 -14 4 -14 -14 -1 -18 14 -18 14 -5 -3 12 -16 16 -16 31
-2 9 8 20 13 23 10 4 -3 5 -2 2 2 -3 3 0 12 7 20 6 7 8 16 4 20 -3 3 -6 1 -6
-6 0 -7 -5 -9 -10 -6 -6 4 -8 11 -5 16 10 15 -1 10 -15 -7z"/>
<path d="M1824 1331 c5 -7 0 -19 -10 -27 -18 -14 -18 -14 4 -4 24 12 28 25 10
36 -7 5 -8 3 -4 -5z"/>
<path d="M1090 1320 c0 -5 5 -10 11 -10 5 0 7 5 4 10 -3 6 -8 10 -11 10 -2 0
-4 -4 -4 -10z"/>
<path d="M1373 1315 c0 -8 4 -12 9 -9 5 3 6 10 3 15 -9 13 -12 11 -12 -6z"/>
<path d="M998 1303 c7 -3 16 -2 19 1 4 3 -2 6 -13 5 -11 0 -14 -3 -6 -6z"/>
<path d="M1078 1299 c15 -16 16 -43 0 -33 -7 4 -8 3 -4 -4 9 -14 33 -5 33 12
0 7 -10 19 -21 26 -17 10 -19 10 -8 -1z"/>
<path d="M990 1281 c0 -6 4 -13 10 -16 6 -3 7 1 4 9 -7 18 -14 21 -14 7z"/>
<path d="M2439 1285 c-6 -23 -2 -52 8 -62 19 -21 25 -15 9 10 -7 12 -12 30
-11 40 3 15 -3 26 -6 12z"/>
<path d="M973 1245 c0 -8 4 -15 9 -15 4 0 8 7 8 15 0 8 -4 15 -8 15 -5 0 -9
-7 -9 -15z"/>
<path d="M1826 1240 c3 -14 6 -33 5 -42 0 -10 4 -18 9 -18 10 0 6 24 -9 60
l-12 25 7 -25z"/>
<path d="M325 1210 c-3 -5 -13 -6 -23 -3 -21 8 -14 -1 13 -15 17 -9 21 -7 21
9 0 21 -2 23 -11 9z"/>
<path d="M903 1194 c4 -7 0 -14 -8 -18 -17 -6 -20 -26 -4 -26 5 0 7 5 3 12 -5
8 -2 9 9 5 23 -9 30 8 10 24 -9 8 -14 9 -10 3z"/>
<path d="M350 1170 c-6 -11 -8 -20 -6 -20 3 0 10 9 16 20 6 11 8 20 6 20 -3 0
-10 -9 -16 -20z"/>
<path d="M2434 1155 c0 -13 3 -22 7 -19 8 4 6 30 -2 38 -3 3 -5 -5 -5 -19z"/>
<path d="M1333 1150 c-1 -11 2 -20 5 -20 4 0 8 9 9 20 1 11 -2 20 -5 20 -4 0
-8 -9 -9 -20z"/>
<path d="M1806 1158 c3 -5 10 -6 15 -3 13 9 11 12 -6 12 -8 0 -12 -4 -9 -9z"/>
<path d="M247 1116 c-15 -22 -15 -24 0 -22 9 2 17 12 18 24 2 28 1 27 -18 -2z"/>
<path d="M296 1126 c5 -12 4 -17 -3 -13 -5 3 -10 -1 -10 -9 0 -13 2 -13 16 0
12 13 13 18 2 28 -10 11 -11 9 -5 -6z"/>
<path d="M1143 1127 c0 -7 13 -12 28 -12 28 -1 34 2 14 5 -5 1 -17 6 -26 10
-10 6 -16 5 -16 -3z"/>
<path d="M2405 1130 c-4 -6 -10 -8 -15 -5 -4 3 -11 -2 -14 -11 -3 -9 -11 -12
-18 -8 -9 6 -9 3 1 -9 14 -18 36 -13 25 5 -5 8 -1 9 12 4 10 -4 15 -4 11 0 -4
4 -2 13 4 21 6 7 9 13 6 13 -3 0 -9 -5 -12 -10z"/>
<path d="M453 1117 c-3 -7 -3 -9 2 -5 4 4 14 3 21 -3 8 -7 14 -7 19 1 3 5 5
10 3 11 -27 6 -39 5 -45 -4z"/>
<path d="M1215 1120 c-3 -5 -1 -10 4 -10 6 0 11 5 11 10 0 6 -2 10 -4 10 -3 0
-8 -4 -11 -10z"/>
<path d="M1810 1119 c0 -5 5 -7 10 -4 6 3 10 8 10 11 0 2 -4 4 -10 4 -5 0 -10
-5 -10 -11z"/>
<path d="M529 1103 c-6 -7 -10 -13 -8 -14 23 -4 37 -8 54 -14 11 -3 8 1 -7 10
-30 17 -37 28 -13 19 8 -4 15 -2 15 3 0 14 -29 12 -41 -4z"/>
<path d="M696 1109 c3 -6 8 -8 11 -5 3 3 15 0 27 -6 16 -8 18 -8 10 1 -14 15
-57 24 -48 10z"/>
<path d="M936 1107 c3 -10 9 -15 12 -12 3 3 0 11 -7 18 -10 9 -11 8 -5 -6z"/>
<path d="M1355 1110 c-3 -6 1 -7 10 -4 9 4 15 3 13 -2 -2 -5 0 -10 5 -11 16
-6 19 -2 7 12 -14 17 -26 19 -35 5z"/>
<path d="M1970 1105 c-11 -13 -10 -14 4 -9 9 3 16 10 16 15 0 13 -6 11 -20 -6z"/>
<path d="M2028 1104 c6 -12 8 -24 5 -28 -3 -3 -2 -6 4 -6 6 0 13 9 16 21 3 12
3 18 0 15 -4 -3 -13 0 -21 7 -13 10 -14 9 -4 -9z"/>
<path d="M580 1098 c0 -4 4 -8 9 -8 6 0 12 4 15 8 3 5 -1 9 -9 9 -8 0 -15 -4
-15 -9z"/>
<path d="M1430 1100 c0 -4 7 -7 15 -6 23 3 26 12 5 13 -11 1 -20 -2 -20 -7z"/>
<path d="M615 1080 c3 -5 8 -10 11 -10 2 0 4 5 4 10 0 6 -5 10 -11 10 -5 0 -7
-4 -4 -10z"/>
<path d="M2410 1080 c0 -5 5 -10 11 -10 5 0 7 5 4 10 -3 6 -8 10 -11 10 -2 0
-4 -4 -4 -10z"/>
<path d="M595 1059 c-4 -6 -5 -12 -2 -15 2 -3 7 2 10 11 7 17 1 20 -8 4z"/>
<path d="M825 1060 c-3 -6 1 -7 9 -4 18 7 21 14 7 14 -6 0 -13 -4 -16 -10z"/>
<path d="M1908 1053 c7 -3 16 -2 19 1 4 3 -2 6 -13 5 -11 0 -14 -3 -6 -6z"/>
<path d="M1939 1033 c-13 -16 -12 -17 4 -4 16 13 21 21 13 21 -2 0 -10 -8 -17
-17z"/>
<path d="M1699 1018 c-7 -23 -4 -39 10 -57 13 -17 18 -19 18 -7 0 8 -6 17 -13
20 -7 3 -11 14 -9 26 2 11 2 20 -1 20 -2 0 -4 -1 -5 -2z"/>
<path d="M135 1000 c-3 -5 -1 -10 4 -10 6 0 11 5 11 10 0 6 -2 10 -4 10 -3 0
-8 -4 -11 -10z"/>
<path d="M1919 1003 c-1 -5 -3 -18 -4 -31 -2 -21 -1 -22 16 -6 18 16 19 16 19
1 0 -10 5 -17 10 -17 7 0 7 7 0 21 -10 17 -14 18 -27 7 -14 -11 -15 -10 -9 10
4 12 5 22 2 22 -3 0 -7 -3 -7 -7z"/>
<path d="M605 981 c-3 -5 -1 -12 5 -16 6 -4 7 -12 4 -18 -4 -8 -2 -7 7 1 12
11 12 14 0 21 -11 7 -11 9 0 14 9 3 10 6 2 6 -6 1 -14 -3 -18 -8z"/>
<path d="M1305 970 c-3 -6 1 -7 9 -4 18 7 21 14 7 14 -6 0 -13 -4 -16 -10z"/>
<path d="M805 950 c-3 -6 1 -7 9 -4 18 7 21 14 7 14 -6 0 -13 -4 -16 -10z"/>
<path d="M1920 938 c-12 -8 -12 -9 2 -4 10 3 18 -1 21 -12 4 -16 5 -16 6 0 1
22 -11 29 -29 16z"/>
<path d="M630 930 c0 -5 5 -10 11 -10 5 0 7 5 4 10 -3 6 -8 10 -11 10 -2 0 -4
-4 -4 -10z"/>
<path d="M1970 925 c0 -7 -8 -19 -17 -24 -17 -10 -17 -10 0 -11 9 0 17 -5 17
-11 0 -5 -4 -7 -10 -4 -6 4 -7 -1 -3 -11 4 -11 8 -13 11 -6 2 7 7 10 11 8 4
-3 7 4 7 14 0 10 -4 16 -8 14 -11 -7 -10 4 2 27 7 13 7 19 0 19 -5 0 -10 -7
-10 -15z"/>
<path d="M1714 919 c-3 -6 -2 -15 3 -20 5 -5 9 -1 10 11 2 22 -2 25 -13 9z"/>
<path d="M2395 921 c-6 -11 13 -26 22 -17 4 3 1 6 -6 6 -7 0 -9 5 -6 10 3 6 4
10 1 10 -3 0 -7 -4 -11 -9z"/>
<path d="M1645 910 c-11 -5 -14 -9 -7 -9 7 -1 10 -5 7 -11 -3 -5 0 -7 8 -4 7
2 14 11 14 19 0 8 -1 15 -1 14 -1 0 -10 -4 -21 -9z"/>
<path d="M1913 913 c4 -3 2 -12 -4 -19 -7 -9 -7 -19 0 -32 6 -11 7 -23 3 -28
-4 -5 0 -3 9 4 9 6 19 8 24 4 4 -4 1 7 -7 23 -9 17 -13 36 -11 43 3 6 -1 12
-8 12 -7 0 -9 -3 -6 -7z m15 -58 c-3 -3 -9 2 -12 12 -6 14 -5 15 5 6 7 -7 10
-15 7 -18z"/>
<path d="M2340 906 c0 -2 8 -10 18 -17 15 -13 16 -12 3 4 -13 16 -21 21 -21
13z"/>
<path d="M1175 871 c-3 -5 -2 -12 3 -15 5 -3 9 1 9 9 0 17 -3 19 -12 6z"/>
<path d="M2375 860 c3 -5 8 -10 11 -10 2 0 4 5 4 10 0 6 -5 10 -11 10 -5 0 -7
-4 -4 -10z"/>
<path d="M2345 841 c30 -34 75 -55 89 -41 8 8 6 9 -8 4 -13 -5 -17 -4 -12 4 4
8 2 10 -7 6 -9 -3 -22 4 -31 18 -9 12 -16 19 -16 14 0 -5 -8 -2 -17 5 -13 10
-13 8 2 -10z"/>
<path d="M754 831 c9 -10 13 -21 9 -26 -5 -4 -3 -5 4 -2 17 10 9 40 -11 43
-16 2 -16 1 -2 -15z"/>
<path d="M1301 823 c-1 -17 16 -25 25 -12 4 7 3 9 -4 5 -5 -3 -13 0 -15 6 -4
9 -6 10 -6 1z"/>
<path d="M1953 795 c0 -8 4 -12 9 -9 5 3 6 10 3 15 -9 13 -12 11 -12 -6z"/>
<path d="M1303 755 c0 -7 6 -11 14 -8 7 3 13 6 13 8 0 2 -6 5 -13 8 -8 3 -14
-1 -14 -8z"/>
<path d="M1276 747 c3 -10 9 -15 12 -12 3 3 0 11 -7 18 -10 9 -11 8 -5 -6z"/>
<path d="M656 738 c3 -5 10 -6 15 -3 13 9 11 12 -6 12 -8 0 -12 -4 -9 -9z"/>
<path d="M710 740 c0 -5 5 -10 11 -10 5 0 7 5 4 10 -3 6 -8 10 -11 10 -2 0 -4
-4 -4 -10z"/>
<path d="M1299 713 c-12 -16 -12 -17 2 -6 9 7 19 10 22 6 4 -3 7 -1 7 5 0 17
-16 15 -31 -5z"/>
<path d="M1917 723 c-8 -17 -1 -37 13 -40 10 -3 11 -2 4 4 -6 4 -10 16 -8 26
2 18 -2 23 -9 10z"/>
<path d="M2062 712 c-18 -9 -32 -22 -32 -31 0 -12 3 -11 13 3 11 15 17 16 35
7 14 -7 23 -8 27 -1 9 15 27 1 21 -16 -3 -8 -2 -13 2 -13 4 1 9 0 12 -1 37
-16 100 5 100 34 0 6 -9 0 -19 -13 -18 -23 -41 -22 -41 2 0 7 4 6 10 -3 5 -8
13 -11 17 -6 4 5 2 11 -5 13 -6 3 -9 10 -5 16 4 8 1 7 -9 -1 -13 -10 -17 -10
-20 0 -4 11 -8 11 -20 0 -12 -10 -17 -10 -27 1 -6 8 -9 16 -6 19 11 10 -23 4
-53 -10z m43 -12 c-3 -5 -13 -6 -21 -3 -12 4 -13 8 -3 14 15 9 32 2 24 -11z
m65 -19 c7 -15 7 -19 -5 -17 -20 3 -28 13 -20 25 9 15 13 14 25 -8z"/>
<path d="M1542 690 c7 -11 17 -20 22 -20 5 0 1 9 -9 20 -10 11 -20 20 -22 20
-2 0 2 -9 9 -20z"/>
<path d="M1953 655 c0 -8 4 -12 9 -9 5 3 6 10 3 15 -9 13 -12 11 -12 -6z"/>
<path d="M1550 651 c0 -6 4 -12 8 -15 5 -3 9 1 9 9 0 8 -4 15 -9 15 -4 0 -8
-4 -8 -9z"/>
<path d="M120 630 c-9 -6 -10 -10 -3 -10 6 0 15 5 18 10 8 12 4 12 -15 0z"/>
<path d="M1510 636 c0 -2 9 -6 20 -9 11 -3 18 -1 14 4 -5 9 -34 13 -34 5z"/>
<path d="M1910 618 c0 -11 28 -10 35 1 3 6 -4 9 -15 8 -11 -1 -20 -5 -20 -9z"/>
<path d="M126 604 c-20 -19 -20 -25 -2 -18 8 3 17 12 20 20 7 18 1 18 -18 -2z"/>
<path d="M1517 609 c7 -7 15 -10 18 -7 3 3 -2 9 -12 12 -14 6 -15 5 -6 -5z"/>
<path d="M1948 583 c6 -2 18 -2 25 0 6 3 1 5 -13 5 -14 0 -19 -2 -12 -5z"/>
<path d="M124 564 c-18 -14 -18 -15 4 -4 12 6 22 13 22 15 0 8 -5 6 -26 -11z"/>
<path d="M927 559 c7 -7 15 -10 18 -7 3 3 -2 9 -12 12 -14 6 -15 5 -6 -5z"/>
<path d="M1971 554 c0 -11 3 -14 6 -6 3 7 2 16 -1 19 -3 4 -6 -2 -5 -13z"/>
<path d="M1630 556 c0 -2 8 -10 18 -17 15 -13 16 -12 3 4 -13 16 -21 21 -21
13z"/>
<path d="M830 520 c-23 -32 -19 -40 6 -15 9 8 12 15 8 15 -4 0 1 7 12 15 10 8
14 15 7 15 -6 0 -21 -13 -33 -30z"/>
<path d="M1046 542 c-3 -5 1 -9 9 -9 8 0 12 4 9 9 -3 4 -7 8 -9 8 -2 0 -6 -4
-9 -8z"/>
<path d="M869 523 c-13 -16 -12 -17 4 -4 9 7 17 15 17 17 0 8 -8 3 -21 -13z"/>
<path d="M613 495 c0 -8 4 -12 9 -9 5 3 6 10 3 15 -9 13 -12 11 -12 -6z"/>
<path d="M2365 499 c-4 -6 -4 -13 -1 -16 3 -4 6 -1 6 6 0 7 5 9 12 5 7 -4 8
-3 4 4 -9 15 -13 15 -21 1z"/>
<path d="M2070 480 c0 -5 5 -10 10 -10 6 0 10 5 10 10 0 6 -4 10 -10 10 -5 0
-10 -4 -10 -10z"/>
<path d="M305 470 c-6 -9 0 -11 43 -13 9 -1 20 -6 24 -12 5 -7 8 -6 8 1 0 19
-27 37 -35 24 -5 -8 -10 -8 -20 0 -9 8 -15 8 -20 0z"/>
<path d="M500 470 c-12 -7 -10 -9 7 -7 12 0 19 5 17 9 -6 10 -6 10 -24 -2z"/>
<path d="M1205 469 c-4 -5 -4 -13 -1 -16 3 -4 6 0 6 8 0 11 2 11 10 -1 6 -9
10 -10 10 -3 0 17 -17 25 -25 12z"/>
<path d="M1404 463 c-10 -7 -13 -13 -7 -13 7 0 14 4 18 10 3 5 12 7 19 4 8 -3
16 -2 19 3 8 14 -30 10 -49 -4z"/>
<path d="M2247 466 c-9 -7 -17 -16 -17 -19 0 -6 21 -4 35 4 6 4 18 5 28 3 11
-1 16 1 12 4 -4 4 -10 7 -13 7 -4 0 -12 3 -17 7 -6 3 -18 1 -28 -6z"/>
<path d="M210 460 c0 -5 5 -10 11 -10 5 0 7 5 4 10 -3 6 -8 10 -11 10 -2 0 -4
-4 -4 -10z"/>
<path d="M395 460 c-3 -5 -1 -10 4 -10 6 0 11 5 11 10 0 6 -2 10 -4 10 -3 0
-8 -4 -11 -10z"/>
<path d="M470 461 c0 -6 4 -13 10 -16 6 -3 7 1 4 9 -7 18 -14 21 -14 7z"/>
<path d="M1795 451 c-3 -5 -2 -12 3 -15 5 -3 9 1 9 9 0 17 -3 19 -12 6z"/>
<path d="M295 440 c3 -5 8 -10 11 -10 2 0 4 5 4 10 0 6 -5 10 -11 10 -5 0 -7
-4 -4 -10z"/>
</g>
</svg>
